<svg width="538" height="510" viewBox="0 0 538 510" fill="none" xmlns="http://www.w3.org/2000/svg">
<path fill-rule="evenodd" clip-rule="evenodd" d="M536.984 236C539.484 257.5 533.484 344.5 527.984 371C522.484 397.5 511.984 442.5 453.984 456C407.584 466.8 330.284 469.8 297.484 470L332.984 418C363.684 415.7 428.584 409.6 442.984 404C460.984 397 472.484 392.5 478.484 351C483.284 317.8 484.784 284.8 484.984 272.5L184.484 336C162.484 339.3 116.284 336.6 107.484 299L500.984 214.5C511.284 212.8 532.984 214.8 536.984 236ZM224.984 346L279.484 335L270.984 383.5L310.984 327L386.484 311.5L245.484 510H195.484L224.984 346ZM3.3841 323.5L54.084 313C55.184 326.6 56.684 337.5 58.984 353.5C64.984 395 76.484 399.5 94.484 406.5C108.884 412.1 162.784 418.1 193.384 420.5L185.284 471.2C149.084 469.5 114.784 465.7 83.484 458.5C25.4841 445 14.9841 400 9.4841 373.5C7.1841 362.4 5.1841 346.4 3.3841 323.5ZM0.584098 274C-1.9159 252.5 4.0841 165.5 9.5841 139C15.0841 112.5 25.5841 67.5 83.584 54C129.984 43.2 207.284 40.2 240.084 40L204.584 92C173.884 94.4 108.984 100.4 94.584 106C76.584 113 65.084 117.5 59.084 159C54.284 192.2 52.7841 225.2 52.5841 237.5L353.084 174C375.084 170.7 421.284 173.4 430.084 211L36.5841 295.5C26.2841 297.2 4.5841 295.2 0.584098 274ZM312.584 164L258.084 175L266.584 126.5L226.584 183L151.084 198.5L292.084 0H342.084L312.584 164ZM534.184 186.5L483.384 197C482.384 183.5 480.884 172.5 478.584 156.6C472.584 115.1 461.084 110.6 443.084 103.6C428.684 98 374.784 91.9 344.184 89.6L352.184 38.8C388.484 40.5 422.784 44.3 454.084 51.6C512.084 65.1 522.584 110.1 528.084 136.6C530.384 147.6 532.284 163.6 534.184 186.5Z" fill="#FF5119"/>
</svg>
